<?xml version="1.0" encoding="utf-8"?>
<!-- Generator: Avocode 2.4.5 - http://avocode.com -->
<svg height="18" width="31" xmlns:xlink="http://www.w3.org/1999/xlink" xmlns="http://www.w3.org/2000/svg" viewBox="0 0 31 18">
    <path fill="#000000" fill-rule="evenodd" d="M 22 7.49 L 22 1.49 L 26.67 1.49 L 28.16 7.49 L 22 7.49 Z M 29.96 15 L 31 15 L 31 7.84 L 29.48 7.19 L 27.59 0.71 C 27.44 0.18 26.96 0 26.41 0 L 1.23 0 C 0.55 0 0 0.18 0 0.85 L 0 15 L 2.54 15 C 2.78 16.7 4.24 18 6 18 C 7.76 18 9.22 16.7 9.46 15 L 23.04 15 C 23.28 16.7 24.74 18 26.5 18 C 28.26 18 29.72 16.7 29.96 15 Z M 29.3 14.5 C 29.3 14.5 29.3 14.5 29.3 14.5 L 27.94 14.5 C 27.94 15.3 27.3 15.94 26.5 15.94 C 25.7 15.94 25.06 15.3 25.06 14.5 C 25.06 13.7 25.7 13.06 26.5 13.06 C 27.3 13.06 27.94 13.7 27.94 14.5 L 29.3 14.5 Z M 9.03 14.5 C 9.03 14.5 9.03 14.5 9.03 14.5 L 7.44 14.5 C 7.44 15.3 6.8 15.94 6 15.94 C 5.2 15.94 4.56 15.3 4.56 14.5 C 4.56 13.7 5.2 13.06 6 13.06 C 6.8 13.06 7.44 13.7 7.44 14.5 L 9.03 14.5 Z M 9.03 14.5" />
</svg>