<?xml version="1.0" encoding="utf-8"?>
<!-- Generator: Avocode 2.4.5 - http://avocode.com -->
<svg xmlns:xlink="http://www.w3.org/1999/xlink" xmlns="http://www.w3.org/2000/svg" viewBox="0 0 220 32">
    <path fill="#000000" fill-rule="evenodd" d="M 65 5 L 65 27 L 60.73 27 L 60.73 8.45 L 49.22 8.45 L 49.22 27 L 45 27 L 45 5 L 65 5 Z M 65 5" />
    <path fill="#000000" fill-rule="evenodd" d="M 74.83 18.42 L 81.89 18.42 L 78.19 9.71 L 74.83 18.42 Z M 80.34 5 L 90 27 L 85.54 27 L 83.27 21.65 L 73.54 21.65 L 71.43 27 L 67 27 L 76.02 5 L 80.34 5 Z M 80.34 5" />
    <path fill="#000000" fill-rule="evenodd" d="M 99.68 14.62 C 100.82 14.62 101.71 14.36 102.35 13.84 C 102.99 13.31 103.31 12.54 103.31 11.51 C 103.31 9.47 102 8.44 99.38 8.44 L 96.46 8.44 L 96.46 14.62 L 99.68 14.62 Z M 100.74 5.09 C 102.81 5.09 104.49 5.69 105.79 6.9 C 107.08 8.1 107.73 9.65 107.73 11.54 C 107.73 13.46 107.08 15.01 105.76 16.19 C 104.45 17.38 102.73 17.97 100.58 17.97 L 96.46 17.97 L 96.46 27.28 L 92.18 27.28 L 92.18 5.09 L 100.74 5.09 Z M 100.74 5.09" />
    <path fill="#000000" fill-rule="evenodd" d="M 115.36 5.09 L 115.36 13.97 L 115.58 13.97 C 116.53 13.95 117.26 13.8 117.75 13.53 C 118.25 13.25 118.72 12.81 119.15 12.21 C 119.58 11.6 120.02 10.79 120.45 9.78 C 121.05 8.41 121.62 7.43 122.14 6.82 C 122.66 6.22 123.29 5.78 124.01 5.51 C 124.73 5.23 125.65 5.09 126.76 5.09 C 127.17 5.09 127.53 5.11 127.82 5.16 L 127.82 8.57 C 126.96 8.57 126.32 8.65 125.91 8.8 C 125.51 8.95 125.15 9.22 124.85 9.6 C 124.55 9.98 124.18 10.69 123.73 11.73 C 122.9 13.73 121.8 14.99 120.45 15.51 C 121.49 15.94 122.42 16.64 123.26 17.59 C 124.1 18.54 125 19.91 125.94 21.69 L 128.93 27.28 L 124.19 27.28 L 121.46 22.07 C 120.81 20.84 120.19 19.88 119.62 19.2 C 119.04 18.51 118.44 18.01 117.82 17.69 C 117.21 17.38 116.38 17.23 115.36 17.23 L 115.36 27.28 L 111.14 27.28 L 111.14 5.09 L 115.36 5.09 Z M 115.36 5.09" />
    <path fill="#000000" fill-rule="evenodd" d="M 146.25 5.09 L 146.25 8.44 L 136.21 8.44 L 136.21 14.27 L 145.82 14.27 L 145.82 17.62 L 136.21 17.62 L 136.21 23.93 L 146.47 23.93 L 146.47 27.28 L 131.93 27.28 L 131.93 5.09 L 146.25 5.09 Z M 146.25 5.09" />
    <path fill="#000000" fill-rule="evenodd" d="M 170.15 5.09 L 170.15 8.44 L 162.28 8.44 L 162.28 27.28 L 158 27.28 L 158 8.44 L 150.13 8.44 L 150.13 5.09 L 170.15 5.09 Z M 170.15 5.09" />
    <path fill="#000000" fill-rule="evenodd" d="M 190.15 4.81 C 191.4 4.81 192.64 4.95 193.84 5.24 C 195.05 5.52 196.35 6.01 197.74 6.7 L 197.74 10.73 C 196.38 9.95 195.12 9.38 193.96 9.03 C 192.8 8.68 191.59 8.51 190.34 8.51 C 188.76 8.51 187.34 8.83 186.07 9.48 C 184.8 10.14 183.82 11.05 183.11 12.24 C 182.41 13.43 182.06 14.74 182.06 16.19 C 182.06 17.68 182.41 19 183.11 20.18 C 183.8 21.36 184.79 22.26 186.05 22.9 C 187.32 23.54 188.75 23.86 190.34 23.86 C 191.55 23.86 192.71 23.69 193.82 23.34 C 194.92 22.99 196.31 22.36 198 21.45 L 198 25.48 C 196.56 26.24 195.24 26.77 194.03 27.09 C 192.83 27.41 191.42 27.56 189.81 27.56 C 187.48 27.56 185.39 27.1 183.55 26.17 C 181.71 25.24 180.26 23.89 179.21 22.14 C 178.16 20.39 177.63 18.47 177.63 16.38 C 177.63 14.15 178.18 12.14 179.26 10.37 C 180.34 8.59 181.83 7.22 183.73 6.25 C 185.63 5.29 187.77 4.81 190.15 4.81" />
    <path fill="#000000" fill-rule="evenodd" d="M 219.8 5.09 L 219.8 8.44 L 211.93 8.44 L 211.93 27.28 L 207.65 27.28 L 207.65 8.44 L 199.79 8.44 L 199.79 5.09 L 219.8 5.09 Z M 219.8 5.09" />
    <path fill="#42210b" fill-rule="evenodd" d="M 5.39 32 L 0 32 L 0 0.5 L 5.39 0.5 L 5.39 32 Z M 5.39 32" />
    <path fill="#614634" fill-rule="evenodd" d="M 31.69 5.9 L 8.62 5.9 L 8.62 0.5 L 31.69 0.5 L 31.69 5.9 Z M 31.69 5.9" />
    <path fill="#42210b" fill-rule="evenodd" d="M 14.01 32 L 8.62 32 L 8.62 9.13 L 14.01 9.13 L 14.01 32 Z M 14.01 32" />
    <path fill="#614634" fill-rule="evenodd" d="M 31.69 14.53 L 17.24 14.53 L 17.24 9.13 L 31.69 9.13 L 31.69 14.53 Z M 31.69 14.53" />
    <path fill="#42210b" fill-rule="evenodd" d="M 22.62 32 L 17.24 32 L 17.24 17.76 L 22.62 17.76 L 22.62 32 Z M 22.62 32" />
    <path fill="#614634" fill-rule="evenodd" d="M 31.69 23.16 L 25.86 23.16 L 25.86 17.76 L 31.69 17.76 L 31.69 23.16 Z M 31.69 23.16" />
</svg>
