<?xml version="1.0" encoding="utf-8"?>
<!-- Generator: Avocode 2.4.5 - http://avocode.com -->
<svg height="129" width="132" xmlns:xlink="http://www.w3.org/1999/xlink" xmlns="http://www.w3.org/2000/svg" viewBox="0 0 132 129">
    <path fill="#5ca40d" fill-rule="evenodd" d="M 131.21 22.21 L 129.79 20.79 L 64 86.59 L 38.71 61.29 L 37.29 62.71 L 64 89.41 L 119.19 34.23 C 124.3 43.45 127 53.88 127 64.5 C 127 98.96 98.96 127 64.5 127 C 30.04 127 2 98.96 2 64.5 C 2 30.04 30.04 2 64.5 2 C 84.44 2 103.35 11.64 115.09 27.8 L 116.71 26.62 C 104.6 9.95 85.08 0 64.5 0 C 28.94 0 0 28.94 0 64.5 C 0 100.07 28.94 129 64.5 129 C 100.07 129 129 100.07 129 64.5 C 129 53.35 126.11 42.4 120.65 32.76 L 131.21 22.21 Z M 131.21 22.21" />
</svg>