<?xml version="1.0" encoding="utf-8"?>
<!-- Generator: Avocode 2.4.5 - http://avocode.com -->
<svg height="24" width="24" xmlns:xlink="http://www.w3.org/1999/xlink" xmlns="http://www.w3.org/2000/svg" viewBox="0 0 24 24">
    <path fill="#d2c7b9" fill-rule="evenodd" d="M 9.2 14.84 C 11.36 16.98 13.85 19.03 14.83 18.04 C 16.23 16.62 17.09 15.39 20.2 17.88 C 23.31 20.36 20.93 22.04 19.58 23.41 C 18.01 24.99 12.15 23.52 6.34 17.74 C 0.52 11.96 -0.99 6.09 0.58 4.51 C 1.94 3.14 3.59 0.75 6.09 3.85 C 8.59 6.94 7.37 7.81 5.97 9.23 C 4.99 10.22 7.05 12.7 9.2 14.84 L 9.2 14.84 Z M 12.33 4.62 C 12.33 4.62 11.68 4.52 11.22 4.98 C 10.75 5.45 10.73 6.25 11.23 6.75 C 11.52 7.04 11.93 7.1 11.93 7.1 C 12.73 7.25 13.94 7.51 15.22 8.8 C 16.51 10.08 16.76 11.29 16.91 12.1 C 16.91 12.1 16.97 12.51 17.27 12.8 C 17.76 13.29 18.56 13.27 19.03 12.81 C 19.49 12.35 19.39 11.7 19.39 11.7 C 19.13 10.07 18.35 8.37 16.99 7.02 C 15.64 5.67 13.95 4.88 12.33 4.62 L 12.33 4.62 Z M 18.42 5.59 C 20.77 7.95 21.78 10.63 21.45 12.8 C 21.45 12.8 21.34 13.49 21.78 13.94 C 22.29 14.45 23.09 14.42 23.56 13.94 C 23.86 13.64 23.93 13.15 23.93 13.15 C 24.2 11.27 23.86 7.5 20.19 3.82 C 16.52 0.14 12.75 -0.2 10.88 0.07 C 10.88 0.07 10.39 0.14 10.09 0.44 C 9.61 0.91 9.58 1.72 10.09 2.22 C 10.54 2.67 11.22 2.56 11.22 2.56 C 13.39 2.23 16.06 3.23 18.42 5.59 L 18.42 5.59 Z M 18.42 5.59" />
</svg>