<?xml version="1.0" encoding="utf-8"?>
<!-- Generator: Avocode 2.4.5 - http://avocode.com -->
<svg height="28" width="22" xmlns:xlink="http://www.w3.org/1999/xlink" xmlns="http://www.w3.org/2000/svg" viewBox="0 0 22 28">
    <path fill="#d2c7b9" fill-rule="evenodd" d="M 10.83 18.33 C 6.69 18.33 3.33 14.98 3.33 10.83 C 3.33 6.69 6.69 3.33 10.83 3.33 C 14.98 3.33 18.33 6.69 18.33 10.83 C 18.33 14.98 14.98 18.33 10.83 18.33 M 21.67 10.83 C 21.67 4.85 16.82 0 10.83 0 C 4.85 0 0 4.85 0 10.83 C 0 13.56 1.02 16.05 2.68 17.96 L 2.67 17.95 L 10.83 27.5 L 19 17.95 L 18.98 17.96 C 20.65 16.05 21.67 13.56 21.67 10.83" />
</svg>