<?xml version="1.0" encoding="utf-8"?>
<!-- Generator: Avocode 2.4.5 - http://avocode.com -->
<svg height="20" width="17" xmlns:xlink="http://www.w3.org/1999/xlink" xmlns="http://www.w3.org/2000/svg" viewBox="0 0 17 20">
    <path fill="#423525" opacity="0.5" fill-rule="evenodd" d="M 11.96 1.59 C 10.88 1.12 9.72 0.87 8.55 0.87 C 3.84 0.87 0 4.8 0 9.62 C 0 11.12 0.38 12.6 1.1 13.91 L 2.6 13.05 C 2.03 12 1.72 10.82 1.72 9.62 C 1.72 5.77 4.79 2.63 8.55 2.63 C 9.64 2.63 10.72 2.9 11.68 3.41 L 10.2 4.71 L 10.2 5.22 L 13.6 3.65 L 12.13 0 L 11.83 0.31 L 11.96 1.59 Z M 5.04 18.41 C 6.12 18.88 7.28 19.13 8.44 19.13 C 13.16 19.13 17 15.2 17 10.38 C 17 8.88 16.62 7.4 15.9 6.09 L 14.4 6.95 C 14.97 8 15.28 9.18 15.28 10.38 C 15.28 14.23 12.21 17.37 8.44 17.37 C 7.36 17.37 6.28 17.1 5.32 16.59 L 6.8 15.29 L 6.8 14.78 L 3.4 16.35 L 4.87 20 L 5.17 19.69 L 5.04 18.41 Z M 5.04 18.41" />
</svg>