<?xml version="1.0" encoding="utf-8"?>
<!-- Generator: Avocode 2.4.5 - http://avocode.com -->
<svg height="51" width="107" xmlns:xlink="http://www.w3.org/1999/xlink" xmlns="http://www.w3.org/2000/svg" viewBox="0 0 107 51">
    <defs>
        <linearGradient y2="100%" y1="0%" x2="0%" x1="0%" id="gradient-1">
            <stop stop-color="#c5a780" offset="0%" />
            <stop stop-color="#ad9370" offset="100%" />
        </linearGradient>
    </defs>
    <path fill-opacity="0.1" fill="#000000" fill-rule="evenodd" d="M 83.5 4 C 69.04 4 58.72 17.7 53.31 24.39 C 47.9 17.7 37.58 4 23.11 4 C 9.16 4 0 14.74 0 27.06 C 0 39.38 9.16 50.12 23.11 50.12 C 37.58 50.12 47.9 36.43 53.31 29.73 C 58.72 36.43 69.04 50.12 83.5 50.12 C 97.45 50.12 106.62 39.38 106.62 27.06 C 106.62 14.74 97.45 4 83.5 4 L 83.5 4 Z M 23.43 44.04 C 11.66 44.04 6.87 33.49 6.87 27.06 C 6.87 20.64 11.66 10.09 23.43 10.09 C 38.56 10.09 51.02 27.06 51.02 27.06 C 51.02 27.06 38.56 44.04 23.43 44.04 L 23.43 44.04 Z M 83.19 44.04 C 68.06 44.04 55.6 27.06 55.6 27.06 C 55.6 27.06 68.06 10.09 83.19 10.09 C 94.95 10.09 99.74 20.64 99.74 27.06 C 99.74 33.49 94.95 44.04 83.19 44.04 L 83.19 44.04 Z M 83.19 44.04" />
    <path fill="url(#gradient-1)" fill-rule="evenodd" d="M 83.5 0 C 69.04 0 58.72 13.7 53.31 20.39 C 47.9 13.7 37.58 0 23.11 0 C 9.16 0 0 10.74 0 23.06 C 0 35.38 9.16 46.12 23.11 46.12 C 37.58 46.12 47.9 32.43 53.31 25.73 C 58.72 32.43 69.04 46.12 83.5 46.12 C 97.45 46.12 106.62 35.38 106.62 23.06 C 106.62 10.74 97.45 0 83.5 0 L 83.5 0 Z M 23.43 40.04 C 11.66 40.04 6.87 29.49 6.87 23.06 C 6.87 16.64 11.66 6.09 23.43 6.09 C 38.56 6.09 51.02 23.06 51.02 23.06 C 51.02 23.06 38.56 40.04 23.43 40.04 L 23.43 40.04 Z M 83.19 40.04 C 68.06 40.04 55.6 23.06 55.6 23.06 C 55.6 23.06 68.06 6.09 83.19 6.09 C 94.95 6.09 99.74 16.64 99.74 23.06 C 99.74 29.49 94.95 40.04 83.19 40.04 L 83.19 40.04 Z M 83.19 40.04" />
</svg>