<?xml version="1.0" encoding="utf-8"?>
<!-- Generator: Avocode 2.4.5 - http://avocode.com -->
<svg height="81" width="64" xmlns:xlink="http://www.w3.org/1999/xlink" xmlns="http://www.w3.org/2000/svg" viewBox="0 0 64 81">
    <path fill="#f7e9be" fill-rule="evenodd" d="M 58.69 26.47 C 58.69 26.47 58.1 46.67 55.58 59.64 C 53.06 72.62 42.73 80.82 33.53 80.82 C 24.33 80.82 13.99 72.62 11.48 59.64 C 8.96 46.67 8.36 26.47 8.36 26.47 L 58.69 26.47" />
    <path fill-opacity="0.1" fill="#131313" fill-rule="evenodd" d="M 7.6 56.65 C 25.97 54.07 32.43 44.4 38.51 35.18 C 47.61 21.35 57.92 28.33 57.92 29.54 C 57.92 29.54 58.45 21.62 57.92 21.62 C 46.69 21.62 14.6 31.93 8.64 32.83 C 8.64 41.25 7.12 56.72 7.6 56.65 Z M 7.6 56.65" />
    <path fill="#f3513c" fill-rule="evenodd" d="M 26.73 66.77 C 26.73 66.77 28.08 70.82 34.73 70.82 L 33.53 70.82 C 40.18 70.82 41.53 66.77 41.53 66.77 C 41.53 66.77 38.36 67.87 34.13 67.87 C 29.9 67.87 26.73 66.77 26.73 66.77" />
    <path stroke-linejoin="miter" stroke-linecap="butt" stroke-width="2" stroke="#229cf3" fill="none" fill-rule="evenodd" d="M 7.66 41.87 L 7.66 53.42 C 7.66 64.3 15.77 75.43 28.8 75.43" />
    <path fill="#3fa9f5" fill-rule="evenodd" d="M 32.74 78.42 L 27.06 78.42 C 26.03 78.42 25.18 77.58 25.18 76.54 L 25.18 74.31 C 25.18 73.28 26.03 72.43 27.06 72.43 L 32.74 72.43 C 33.78 72.43 34.62 73.28 34.62 74.31 L 34.62 76.54 C 34.62 77.58 33.78 78.42 32.74 78.42" />
    <path stroke-linejoin="miter" stroke-linecap="butt" stroke-width="2" stroke="#000000" fill="none" fill-rule="evenodd" d="M 39.22 39.72 L 52.97 38.15" />
    <path fill="#000000" fill-rule="evenodd" d="M 48.67 47.2 C 48.67 48.63 47.52 49.78 46.09 49.78 C 44.67 49.78 43.51 48.63 43.51 47.2 C 43.51 45.78 44.67 44.63 46.09 44.63 C 47.52 44.63 48.67 45.78 48.67 47.2" />
    <path stroke-linejoin="miter" stroke-linecap="butt" stroke-width="2" stroke="#000000" fill="none" fill-rule="evenodd" d="M 27.83 39.72 L 14.09 38.15" />
    <path fill="#000000" fill-rule="evenodd" d="M 18.38 47.2 C 18.38 48.63 19.54 49.78 20.96 49.78 C 22.39 49.78 23.54 48.63 23.54 47.2 C 23.54 45.78 22.39 44.63 20.96 44.63 C 19.54 44.63 18.38 45.78 18.38 47.2" />
    <path fill="#8a553b" fill-rule="evenodd" d="M 37.82 34.05 C 46.93 20.22 57.99 32.18 57.99 32.18 C 57.99 32.18 57.73 36.24 57.37 41.23 C 57.01 46.23 55.22 53.45 55.22 53.45 C 55.22 53.45 57.37 51.8 59.19 47.67 C 61.02 43.54 61.9 39.59 62.78 32.17 C 65.16 12.03 51.76 0.21 34.11 0.21 C 16.46 0.21 2.74 11.45 2.74 30.38 L 2.74 41.64 C 2.74 47.88 0.75 49.78 0.75 49.78 C 19.96 47.3 31.58 43.52 37.82 34.05 Z M 37.82 34.05" />
</svg>