<?xml version="1.0" encoding="utf-8"?>
<!-- Generator: Avocode 2.4.5 - http://avocode.com -->
<svg height="91" width="91" xmlns:xlink="http://www.w3.org/1999/xlink" xmlns="http://www.w3.org/2000/svg" viewBox="0 0 91 91">
    <path stroke-linejoin="miter" stroke-linecap="butt" stroke-width="2" stroke="#000000" fill="none" fill-rule="evenodd" d="M 45.35 109.29 L 13.53 77.47 L 26.25 64.74 L 58.07 96.56" />
    <path stroke-linejoin="miter" stroke-linecap="butt" stroke-width="2" stroke="#000000" fill="none" fill-rule="evenodd" d="M -5.57 32.93 L 26.25 64.75 L 13.53 77.47 L -18.29 45.65" />
    <path stroke-linejoin="miter" stroke-linecap="butt" stroke-width="2" stroke="#000000" fill="none" fill-rule="evenodd" d="M 58.07 96.57 L 48.18 86.67 L 60.9 73.94 L 70.8 83.84" />
    <path stroke-linejoin="miter" stroke-linecap="butt" stroke-width="2" stroke="#000000" fill="none" fill-rule="evenodd" d="M 90.64 103.67 L 38.98 52.02 L 51.71 39.29 L 103.36 90.94" />
    <path stroke-linejoin="miter" stroke-linecap="butt" stroke-width="2" stroke="#000000" fill="none" fill-rule="evenodd" d="M 101.61 89.19 L 73.63 61.21 L 86.36 48.48 L 114.33 76.46" />
    <path stroke-linejoin="miter" stroke-linecap="butt" stroke-width="2" stroke="#000000" fill="none" fill-rule="evenodd" d="M 96.26 58.38 L 64.44 26.56 L 77.17 13.83 L 108.99 45.65" />
    <path stroke-linejoin="miter" stroke-linecap="butt" stroke-width="2" stroke="#000000" fill="none" fill-rule="evenodd" d="M -4.09 -16.51 L 51.71 39.29 L 38.98 52.02 L -16.82 -3.79" />
    <path stroke-linejoin="miter" stroke-linecap="butt" stroke-width="2" stroke="#000000" fill="none" fill-rule="evenodd" d="M 45.35 -17.99 L 77.17 13.83 L 64.44 26.56 L 32.62 -5.26" />
    <path stroke-linejoin="miter" stroke-linecap="butt" stroke-width="2" stroke="#000000" fill="none" fill-rule="evenodd" d="M 60.9 73.94 L 48.18 86.67 L 4.33 42.82 L 17.06 30.1 L 60.9 73.94 L 60.9 73.94 Z M 60.9 73.94" />
    <path stroke-linejoin="miter" stroke-linecap="butt" stroke-width="2" stroke="#000000" fill="none" fill-rule="evenodd" d="M 86.36 48.48 L 73.63 61.21 L 29.79 17.37 L 42.52 4.64 L 86.36 48.48 L 86.36 48.48 Z M 86.36 48.48" />
</svg>